<mxfile host="app.diagrams.net" agent="Mozilla/5.0 (Windows NT 10.0; Win64; x64) AppleWebKit/537.36 (KHTML, like Gecko) Chrome/135.0.0.0 Safari/537.36" version="26.2.9">
  <diagram name="PÃ¡gina-1" id="IKm80iP7YTtgVAVdSpLB">
    <mxGraphModel dx="874" dy="465" grid="1" gridSize="10" guides="1" tooltips="1" connect="1" arrows="1" fold="1" page="1" pageScale="1" pageWidth="827" pageHeight="1169" math="0" shadow="0">
      <root>
        <mxCell id="0" />
        <mxCell id="1" parent="0" />
        <mxCell id="GfMTiAXSiMqGUMcuwiCa-12" style="edgeStyle=orthogonalEdgeStyle;rounded=0;orthogonalLoop=1;jettySize=auto;html=1;entryX=0.5;entryY=0;entryDx=0;entryDy=0;" edge="1" parent="1" source="GfMTiAXSiMqGUMcuwiCa-1" target="GfMTiAXSiMqGUMcuwiCa-2">
          <mxGeometry relative="1" as="geometry" />
        </mxCell>
        <mxCell id="GfMTiAXSiMqGUMcuwiCa-1" value="Inicio" style="ellipse;whiteSpace=wrap;html=1;aspect=fixed;" vertex="1" parent="1">
          <mxGeometry x="100" y="20" width="80" height="80" as="geometry" />
        </mxCell>
        <mxCell id="GfMTiAXSiMqGUMcuwiCa-13" style="edgeStyle=orthogonalEdgeStyle;rounded=0;orthogonalLoop=1;jettySize=auto;html=1;entryX=0;entryY=0.5;entryDx=0;entryDy=0;" edge="1" parent="1" source="GfMTiAXSiMqGUMcuwiCa-2" target="GfMTiAXSiMqGUMcuwiCa-3">
          <mxGeometry relative="1" as="geometry" />
        </mxCell>
        <mxCell id="GfMTiAXSiMqGUMcuwiCa-2" value="Ingresar el valor de A" style="rounded=1;whiteSpace=wrap;html=1;" vertex="1" parent="1">
          <mxGeometry x="80" y="180" width="120" height="60" as="geometry" />
        </mxCell>
        <mxCell id="GfMTiAXSiMqGUMcuwiCa-7" value="Sin residuo" style="edgeStyle=orthogonalEdgeStyle;rounded=0;orthogonalLoop=1;jettySize=auto;html=1;entryX=0;entryY=0.25;entryDx=0;entryDy=0;" edge="1" parent="1" source="GfMTiAXSiMqGUMcuwiCa-3" target="GfMTiAXSiMqGUMcuwiCa-4">
          <mxGeometry relative="1" as="geometry">
            <mxPoint x="400" y="120" as="targetPoint" />
          </mxGeometry>
        </mxCell>
        <mxCell id="GfMTiAXSiMqGUMcuwiCa-8" value="Con residuo" style="edgeStyle=orthogonalEdgeStyle;rounded=0;orthogonalLoop=1;jettySize=auto;html=1;entryX=0;entryY=0.5;entryDx=0;entryDy=0;" edge="1" parent="1" source="GfMTiAXSiMqGUMcuwiCa-3" target="GfMTiAXSiMqGUMcuwiCa-5">
          <mxGeometry relative="1" as="geometry" />
        </mxCell>
        <mxCell id="GfMTiAXSiMqGUMcuwiCa-3" value="A % 2" style="rhombus;whiteSpace=wrap;html=1;" vertex="1" parent="1">
          <mxGeometry x="290" y="160" width="80" height="80" as="geometry" />
        </mxCell>
        <mxCell id="GfMTiAXSiMqGUMcuwiCa-10" style="edgeStyle=orthogonalEdgeStyle;rounded=0;orthogonalLoop=1;jettySize=auto;html=1;entryX=0.5;entryY=0;entryDx=0;entryDy=0;" edge="1" parent="1" source="GfMTiAXSiMqGUMcuwiCa-4" target="GfMTiAXSiMqGUMcuwiCa-6">
          <mxGeometry relative="1" as="geometry" />
        </mxCell>
        <mxCell id="GfMTiAXSiMqGUMcuwiCa-4" value="Par" style="rounded=1;whiteSpace=wrap;html=1;" vertex="1" parent="1">
          <mxGeometry x="450" y="60" width="120" height="60" as="geometry" />
        </mxCell>
        <mxCell id="GfMTiAXSiMqGUMcuwiCa-11" style="edgeStyle=orthogonalEdgeStyle;rounded=0;orthogonalLoop=1;jettySize=auto;html=1;entryX=0.5;entryY=1;entryDx=0;entryDy=0;" edge="1" parent="1" source="GfMTiAXSiMqGUMcuwiCa-5" target="GfMTiAXSiMqGUMcuwiCa-6">
          <mxGeometry relative="1" as="geometry" />
        </mxCell>
        <mxCell id="GfMTiAXSiMqGUMcuwiCa-5" value="Impar" style="rounded=1;whiteSpace=wrap;html=1;" vertex="1" parent="1">
          <mxGeometry x="450" y="290" width="120" height="60" as="geometry" />
        </mxCell>
        <mxCell id="GfMTiAXSiMqGUMcuwiCa-6" value="Fin" style="ellipse;whiteSpace=wrap;html=1;aspect=fixed;" vertex="1" parent="1">
          <mxGeometry x="660" y="170" width="80" height="80" as="geometry" />
        </mxCell>
      </root>
    </mxGraphModel>
  </diagram>
</mxfile>
